<?xml version="1.0" encoding="utf-8"?>
<!-- Generator: Adobe Illustrator 19.2.1, SVG Export Plug-In . SVG Version: 6.00 Build 0)  -->
<svg version="1.1" id="Слой_1" xmlns="http://www.w3.org/2000/svg" xmlns:xlink="http://www.w3.org/1999/xlink" x="0px" y="0px"
	 width="82" height="67" viewBox="0 0 82 67" style="enable-background:new 0 0 82 67;" xml:space="preserve">
<style type="text/css">
	.st0{fill:#1F2756;}
	.st1{fill:#63CEF6;}
</style>
<path id="Path" class="st0" d="M80.1,67H2c-1.1,0-2-0.9-2-2c0-1.1,0.9-2,2-2h78.1c1.1,0,2,0.9,2,2C82,66.1,81.1,67,80.1,67z"/>
<path class="st0" d="M69.6,0h-56C6.7,0,1.2,5.6,1.2,12.5v34.1c0,6.9,5.5,12.4,12.4,12.5h2.1h52.2h1.6c6.9,0,12.4-5.6,12.4-12.5h0
	V12.5C81.9,5.6,76.4,0,69.6,0z M5.1,12.5c0-4.7,3.8-8.5,8.5-8.5h56c0,0,0,0,0,0c4.7,0,8.5,3.8,8.5,8.5h0v30.9H5.1V12.5
	C5.1,12.5,5.1,12.5,5.1,12.5z M15.7,55.2c-4.7,0-8.8-3.3-9.7-7.9h0h71.7c-1,4.6-5,7.9-9.7,7.9H15.7z"/>
<path id="Path-2" class="st1" d="M44.1,34.8c-0.5,0-1-0.2-1.4-0.6c-0.8-0.8-0.8-2,0-2.8l10.8-10.9c0.8-0.8,2-0.8,2.8,0
	c0.8,0.8,0.8,2,0,2.8L45.5,34.2C45.1,34.6,44.6,34.8,44.1,34.8z"/>
<path id="Path-3" class="st1" d="M27.4,36.6c-0.5,0-1-0.2-1.4-0.6c-0.8-0.8-0.8-2,0-2.8L49.4,9.7c0.8-0.8,2-0.8,2.7,0c0,0,0,0,0,0
	c0.8,0.8,0.8,2,0,2.8L28.8,36.1C28.4,36.4,27.9,36.6,27.4,36.6z"/>
</svg>
