<svg id="Слой_1" data-name="Слой 1" xmlns="http://www.w3.org/2000/svg" width="76" height="69" viewBox="0 0 76 69"><defs><style>.cls-1{fill:#63cef6;}.cls-2{fill:#1f2756;}</style></defs><title>item6</title><path id="Path" class="cls-1" d="M15.62,11.15A2.11,2.11,0,1,1,13.5,9a2.12,2.12,0,0,1,2.12,2.13h0Z" transform="translate(0 0.01)"/><path id="Path-2" class="cls-1" d="M22.67,11.15A2.11,2.11,0,1,1,20.55,9a2.12,2.12,0,0,1,2.12,2.13h0Z" transform="translate(0 0.01)"/><path id="Path-3" class="cls-1" d="M29.71,11.15A2.11,2.11,0,1,1,27.6,9a2.12,2.12,0,0,1,2.11,2.13h0Z" transform="translate(0 0.01)"/><path class="cls-2" d="M76,11.09c0-.15,0-0.29,0-0.44s0-.24-0.05-0.37A11.88,11.88,0,0,0,64.16,0H11.23C4.86,0,0,5.39,0,11.78v7.66H0V57.09A11.88,11.88,0,0,0,11.84,69H64.16A11.88,11.88,0,0,0,76,57.09V11.78C76,11.55,76,11.32,76,11.09ZM64,3.76a8.58,8.58,0,0,1,8.2,6.89c0,0.14,0,.27.06,0.41s0,0.11,0,.17c0,0.22,0,.45,0,0.68v5.65H3.74V11.91h0a8.12,8.12,0,0,1,8.1-8.14H64ZM11.83,65.25a8.12,8.12,0,0,1-8.09-8.16V21.33h46.1V65.25h-38ZM72.26,57.1a8.12,8.12,0,0,1-8.1,8.15H53.57V21.33H72.26V57.09h0Z" transform="translate(0 0.01)"/><path id="Path-5" class="cls-1" d="M68,32.62H58a1.89,1.89,0,1,1,0-3.77H68A1.89,1.89,0,1,1,68,32.62Z" transform="translate(0 0.01)"/><path id="Path-6" class="cls-1" d="M68,43.91H58a1.88,1.88,0,1,1,0-3.76H68A1.88,1.88,0,1,1,68,43.91Z" transform="translate(0 0.01)"/><path id="Path-7" class="cls-1" d="M68,55.21H58a1.89,1.89,0,1,1,0-3.77H68A1.89,1.89,0,1,1,68,55.21Z" transform="translate(0 0.01)"/></svg>