<svg id="Слой_1" data-name="Слой 1" xmlns="http://www.w3.org/2000/svg" width="73" height="73" viewBox="0 0 73 73"><defs><style>.cls-1{fill:#63cef6;}.cls-2{fill:#1f2756;}</style></defs><title>item7</title><path id="Composite_Path" data-name="Composite Path" class="cls-1" d="M73,46.93a11,11,0,0,1-11,11H26.07a11,11,0,0,1-11-11h0V11a11,11,0,0,1,11-11H62A11,11,0,0,1,73,11h0V46.93ZM69.51,11A7.53,7.53,0,0,0,62,3.48H26.07A7.53,7.53,0,0,0,18.54,11h0V46.93a7.53,7.53,0,0,0,7.53,7.53H62a7.53,7.53,0,0,0,7.53-7.53h0V11Z" transform="translate(-0.01)"/><path id="Composite_Path-2" data-name="Composite Path-2" class="cls-2" d="M46.35,62a11,11,0,0,1-11,11H11A11,11,0,0,1,0,62H0V37.66a11,11,0,0,1,11-11H35.34a11,11,0,0,1,11,11h0V62ZM42.87,37.66a7.54,7.54,0,0,0-7.53-7.54H11a7.54,7.54,0,0,0-7.53,7.54V62A7.53,7.53,0,0,0,11,69.52H35.34A7.53,7.53,0,0,0,42.87,62h0V37.66Z" transform="translate(-0.01)"/><path id="Path" class="cls-2" d="M64.62,27a2.83,2.83,0,0,0,.24-1.11V13.72a2.22,2.22,0,0,0-2.22-2.23H50.45a2.86,2.86,0,0,0-1.13.26,2.24,2.24,0,0,0-.64,3.61l4.57,4.57-7.66,7.67a2.09,2.09,0,1,0,2.77,3.13l0.18-.18,7.66-7.67L61,27.69A2.25,2.25,0,0,0,64.62,27Z" transform="translate(-0.01)"/></svg>