<?xml version="1.0" encoding="utf-8"?>
<!-- Generator: Adobe Illustrator 19.2.1, SVG Export Plug-In . SVG Version: 6.00 Build 0)  -->
<svg version="1.1" id="Слой_1" xmlns="http://www.w3.org/2000/svg" xmlns:xlink="http://www.w3.org/1999/xlink" x="0px" y="0px"
	 width="58" height="84.03" viewBox="0 0 58 84.03" style="enable-background:new 0 0 58 84;" xml:space="preserve">
<style type="text/css">
	.st0{fill:#1F2756;}
	.st1{fill:#63CEF6;}
</style>
<title>item3</title>
<path class="st0" d="M45.2,0H12.8C5.8,0,0,5.6,0,12.7V70v1.4C0,78.4,5.8,84,12.8,84h32.4c7,0,12.8-5.6,12.8-12.6V70V12.7
	C58,5.6,52.2,0,45.2,0z M4,14.7H54c0,3.5,0,47.6,0,53.3H4V14.7z M12.8,4h32.4c0,0,0,0,0,0c4.1,0,7.6,2.8,8.5,6.7H4.3
	C5.2,6.8,8.7,4,12.8,4z M45.2,80H12.8c0,0,0,0,0,0c-4.6,0-8.4-3.5-8.7-8h49.9C53.5,76.5,49.8,80,45.2,80z"/>
<path id="Path_2_" class="st0" d="M32.3,7.6c0,1.5-1.1,2.7-2.6,2.8c-1.5,0-2.7-1.1-2.8-2.6S28,5.1,29.5,5c0,0,0,0,0,0l0,0
	C31,5,32.2,6.2,32.3,7.6C32.2,7.7,32.2,7.7,32.3,7.6L32.3,7.6L32.3,7.6z"/>
<path id="Path-2_2_" class="st0" d="M33.2,77.4h-6.8c-1.1,0-2-0.9-2-2s0.9-2,2-2h6.8c1.1,0,2,0.9,2,2S34.3,77.4,33.2,77.4z"/>
<path id="Path-3_2_" class="st1" d="M30,53L30,53c-1.2-0.1-2-1.1-2-2.3c0-10-6.1-11.1-6.9-11.1c-1.1-0.1-1.9-1.1-1.8-2.2
	c0.1-1.1,1-1.9,2.1-1.9c0,0,0,0,0,0c0.1,0,10.6,1.2,10.6,15.3C32.1,51.9,31.2,52.9,30,53z"/>
<path id="Path-4_2_" class="st1" d="M39.3,51.7L39.3,51.7c-1.1,0-2-1-2-2.1c0-17.7-12-18.9-12.1-18.9c-1.1-0.1-1.9-1-1.9-2.1
	s1-1.9,2.1-1.9l0,0c0.1,0,15.9,1.5,15.8,22.9C41.3,50.8,40.4,51.7,39.3,51.7z"/>
</svg>
