<svg id="Слой_1" data-name="Слой 1" xmlns="http://www.w3.org/2000/svg" width="77.031" height="81.97" viewBox="0 0 77.031 81.97"><defs><style>.cls-1{fill:#1f2756;}.cls-2{fill:#63cef6;}</style></defs><title>item1</title><path id="Composite_Path" data-name="Composite Path" class="cls-1" d="M69.85,82h0a7.06,7.06,0,0,1-4.35-1.49l-0.2-.18L45.87,60.63A2.12,2.12,0,0,0,44.64,60c-0.78,0-2,1.71-2.27,4.48S40.83,74.72,40.78,75a1.92,1.92,0,0,1-.35.82,2.32,2.32,0,0,1-1.91,1.09A38.49,38.49,0,0,1,0,38.49q0-1,.05-2.09a38.52,38.52,0,0,1,77,2.07l0,36.37A7.16,7.16,0,0,1,69.85,82ZM68,77.47a3.2,3.2,0,0,0,1.87.61h0a3.22,3.22,0,0,0,3.26-3.18s0,0,0-.06l0-36.37A34.62,34.62,0,1,0,37.15,73c0.39-2.32,1.14-7,1.32-8.93,0.43-4.72,3-8,6.16-8a5.78,5.78,0,0,1,4,1.78Z" transform="translate(0 0.01)"/><path id="Composite_Path-2" data-name="Composite Path-2" class="cls-2" d="M52.73,38.93a7.07,7.07,0,1,1,7.08-7.07A7.07,7.07,0,0,1,52.73,38.93Zm0-10.23a3.16,3.16,0,1,0,3.17,3.16,3.16,3.16,0,0,0-3.17-3.16h0Z" transform="translate(0 0.01)"/><path id="Composite_Path-3" data-name="Composite Path-3" class="cls-2" d="M19.75,38.93a7.07,7.07,0,1,1,7.08-7.07A7.07,7.07,0,0,1,19.75,38.93Zm0-10.23a3.16,3.16,0,1,0,3.17,3.16,3.16,3.16,0,0,0-3.17-3.16h0Z" transform="translate(0 0.01)"/><path id="Composite_Path-4" data-name="Composite Path-4" class="cls-2" d="M25.07,57a7.07,7.07,0,1,1,7.08-7.07A7.07,7.07,0,0,1,25.07,57Zm0-10.23a3.16,3.16,0,1,0,3.17,3.16A3.16,3.16,0,0,0,25.07,46.76Z" transform="translate(0 0.01)"/><path id="Composite_Path-5" data-name="Composite Path-5" class="cls-2" d="M36.77,29.37a7.07,7.07,0,1,1,7.08-7.07A7.07,7.07,0,0,1,36.77,29.37Zm0-10.23a3.16,3.16,0,1,0,3.17,3.16A3.16,3.16,0,0,0,36.77,19.14Z" transform="translate(0 0.01)"/><path id="Composite_Path-6" data-name="Composite Path-6" class="cls-2" d="M37.83,46.36a7.07,7.07,0,1,1,7.08-7.06A7.07,7.07,0,0,1,37.83,46.36Zm0-10.23A3.16,3.16,0,1,0,41,39.3,3.17,3.17,0,0,0,37.83,36.13Z" transform="translate(0 0.01)"/><path id="Composite_Path-7" data-name="Composite Path-7" class="cls-1" d="M63.08,62.49a7.07,7.07,0,1,1,7.08-7.07A7.06,7.06,0,0,1,63.08,62.49Zm0-10.23a3.16,3.16,0,1,0,3.17,3.16h0A3.17,3.17,0,0,0,63.08,52.26Z" transform="translate(0 0.01)"/></svg>