<svg id="Слой_1" data-name="Слой 1" xmlns="http://www.w3.org/2000/svg" width="81.969" height="83" viewBox="0 0 81.969 83"><defs><style>.cls-1{fill:#1f2756;}.cls-2{fill:#63cef6;}</style></defs><title>item2</title><path class="cls-1" d="M79.88,54.8L73.1,47.93,73,47.88a7.08,7.08,0,0,0-10,.05l-7,7.13L28.57,27.31l7-7.13a7.28,7.28,0,0,0,0-10.19L27.82,2.11l-0.05-.05a7.08,7.08,0,0,0-10,.05L3.55,16.48a12.56,12.56,0,0,0,0,17.58l44.76,45.3a12.17,12.17,0,0,0,17.36,0l9.79-9.91h0L79.88,65A7.27,7.27,0,0,0,79.88,54.8ZM20.52,4.9a3.21,3.21,0,0,1,4.54,0l7.79,7.89a3.28,3.28,0,0,1,0,4.59l-3,3.06L17.5,8ZM62.92,76.57l-0.09.09a8.31,8.31,0,0,1-11.75-.09L6.32,31.26a8.55,8.55,0,0,1,0-12l8.42-8.53L27.07,23.23l-2.64,2.68a2,2,0,0,0,0,2.79L54.61,59.25a2,2,0,0,0,2.76,0L60,56.58,71.35,68Zm14.2-14.38-3,3.06L62.78,53.78l3-3.05a3.25,3.25,0,0,1,4.54,0l6.78,6.87A3.27,3.27,0,0,1,77.12,62.19Z" transform="translate(0.04 -0.01)"/><path class="cls-2" d="M52.62,44.64a2,2,0,0,0,2-2q0-.1,0-0.2a10.56,10.56,0,1,1,21.13.2,2,2,0,1,0,3.91,0q0-.21,0-0.42a14.47,14.47,0,0,0-9-13.19,8.84,8.84,0,0,0,3.33-7s0-.07,0-0.11a8.91,8.91,0,1,0-14.39,7.12,14.47,14.47,0,0,0-8.88,13.55A2,2,0,0,0,52.62,44.64ZM65.14,17.18A4.93,4.93,0,0,1,70,22.13v0.06A4.95,4.95,0,1,1,65.14,17.18Z" transform="translate(0.04 -0.01)"/></svg>